<mxfile host="app.diagrams.net" modified="2024-02-15T19:10:48.292Z" agent="Mozilla/5.0 (Windows NT 10.0; Win64; x64) AppleWebKit/537.36 (KHTML, like Gecko) Chrome/121.0.0.0 Safari/537.36" etag="vT3D8z8uioSvP324AM1q" version="23.1.4" type="device" pages="4">
  <diagram name="Página-1" id="LHgGCsi4Lzda9KB7XKq1">
    <mxGraphModel dx="1050" dy="557" grid="1" gridSize="10" guides="1" tooltips="1" connect="1" arrows="1" fold="1" page="1" pageScale="1" pageWidth="827" pageHeight="1169" math="0" shadow="0">
      <root>
        <mxCell id="0" />
        <mxCell id="1" parent="0" />
        <mxCell id="RDJkUQa1LF6RGReYZGc8-4" value="" style="edgeStyle=orthogonalEdgeStyle;rounded=0;orthogonalLoop=1;jettySize=auto;html=1;" edge="1" parent="1" source="RDJkUQa1LF6RGReYZGc8-2" target="RDJkUQa1LF6RGReYZGc8-3">
          <mxGeometry relative="1" as="geometry" />
        </mxCell>
        <mxCell id="RDJkUQa1LF6RGReYZGc8-2" value="início" style="strokeWidth=2;html=1;shape=mxgraph.flowchart.start_1;whiteSpace=wrap;fillColor=#B9E0A5;" vertex="1" parent="1">
          <mxGeometry x="90" y="100" width="100" height="60" as="geometry" />
        </mxCell>
        <mxCell id="RDJkUQa1LF6RGReYZGc8-6" value="" style="edgeStyle=orthogonalEdgeStyle;rounded=0;orthogonalLoop=1;jettySize=auto;html=1;" edge="1" parent="1" source="RDJkUQa1LF6RGReYZGc8-3" target="RDJkUQa1LF6RGReYZGc8-5">
          <mxGeometry relative="1" as="geometry" />
        </mxCell>
        <mxCell id="RDJkUQa1LF6RGReYZGc8-3" value="recebe o 1º &lt;br&gt;número" style="shape=parallelogram;perimeter=parallelogramPerimeter;whiteSpace=wrap;html=1;fixedSize=1;fillColor=#FFCC99;strokeWidth=2;" vertex="1" parent="1">
          <mxGeometry x="80" y="200" width="120" height="60" as="geometry" />
        </mxCell>
        <mxCell id="RDJkUQa1LF6RGReYZGc8-8" value="" style="edgeStyle=orthogonalEdgeStyle;rounded=0;orthogonalLoop=1;jettySize=auto;html=1;" edge="1" parent="1" source="RDJkUQa1LF6RGReYZGc8-5" target="RDJkUQa1LF6RGReYZGc8-7">
          <mxGeometry relative="1" as="geometry" />
        </mxCell>
        <mxCell id="RDJkUQa1LF6RGReYZGc8-5" value="recebe o&amp;nbsp; 2º&amp;nbsp;&lt;br&gt;número" style="shape=parallelogram;perimeter=parallelogramPerimeter;whiteSpace=wrap;html=1;fixedSize=1;fillColor=#FFCC99;strokeWidth=2;" vertex="1" parent="1">
          <mxGeometry x="80" y="320" width="120" height="60" as="geometry" />
        </mxCell>
        <mxCell id="RDJkUQa1LF6RGReYZGc8-13" style="edgeStyle=orthogonalEdgeStyle;rounded=0;orthogonalLoop=1;jettySize=auto;html=1;exitX=0.5;exitY=1;exitDx=0;exitDy=0;" edge="1" parent="1" source="RDJkUQa1LF6RGReYZGc8-7" target="RDJkUQa1LF6RGReYZGc8-12">
          <mxGeometry relative="1" as="geometry" />
        </mxCell>
        <mxCell id="RDJkUQa1LF6RGReYZGc8-7" value="realiza a soma dos números obtidos&amp;nbsp;" style="whiteSpace=wrap;html=1;fillColor=#99CCFF;strokeWidth=2;" vertex="1" parent="1">
          <mxGeometry x="80" y="440" width="120" height="60" as="geometry" />
        </mxCell>
        <mxCell id="RDJkUQa1LF6RGReYZGc8-12" value="&amp;nbsp;exibe o resultado da soma&amp;nbsp;" style="strokeWidth=2;html=1;shape=mxgraph.flowchart.display;whiteSpace=wrap;fillColor=#FFCC99;" vertex="1" parent="1">
          <mxGeometry x="90" y="550" width="100" height="60" as="geometry" />
        </mxCell>
        <mxCell id="RDJkUQa1LF6RGReYZGc8-16" value="fim" style="strokeWidth=2;html=1;shape=mxgraph.flowchart.start_1;whiteSpace=wrap;fillColor=#EA6B66;" vertex="1" parent="1">
          <mxGeometry x="90" y="660" width="100" height="60" as="geometry" />
        </mxCell>
        <mxCell id="RDJkUQa1LF6RGReYZGc8-17" style="edgeStyle=orthogonalEdgeStyle;rounded=0;orthogonalLoop=1;jettySize=auto;html=1;exitX=0.5;exitY=1;exitDx=0;exitDy=0;exitPerimeter=0;entryX=0.5;entryY=0;entryDx=0;entryDy=0;entryPerimeter=0;" edge="1" parent="1" source="RDJkUQa1LF6RGReYZGc8-12" target="RDJkUQa1LF6RGReYZGc8-16">
          <mxGeometry relative="1" as="geometry" />
        </mxCell>
        <mxCell id="RDJkUQa1LF6RGReYZGc8-21" value="" style="edgeStyle=orthogonalEdgeStyle;rounded=0;orthogonalLoop=1;jettySize=auto;html=1;" edge="1" parent="1" source="RDJkUQa1LF6RGReYZGc8-19" target="RDJkUQa1LF6RGReYZGc8-20">
          <mxGeometry relative="1" as="geometry" />
        </mxCell>
        <mxCell id="RDJkUQa1LF6RGReYZGc8-19" value="início" style="strokeWidth=2;html=1;shape=mxgraph.flowchart.start_1;whiteSpace=wrap;fillColor=#B9E0A5;" vertex="1" parent="1">
          <mxGeometry x="490" y="100" width="100" height="60" as="geometry" />
        </mxCell>
        <mxCell id="RDJkUQa1LF6RGReYZGc8-23" value="" style="edgeStyle=orthogonalEdgeStyle;rounded=0;orthogonalLoop=1;jettySize=auto;html=1;" edge="1" parent="1" source="RDJkUQa1LF6RGReYZGc8-20" target="RDJkUQa1LF6RGReYZGc8-22">
          <mxGeometry relative="1" as="geometry" />
        </mxCell>
        <mxCell id="RDJkUQa1LF6RGReYZGc8-20" value="obter 1º nota&amp;nbsp;" style="shape=parallelogram;perimeter=parallelogramPerimeter;whiteSpace=wrap;html=1;fixedSize=1;fillColor=#FFCE9F;strokeWidth=2;" vertex="1" parent="1">
          <mxGeometry x="480" y="200" width="120" height="60" as="geometry" />
        </mxCell>
        <mxCell id="RDJkUQa1LF6RGReYZGc8-25" value="" style="edgeStyle=orthogonalEdgeStyle;rounded=0;orthogonalLoop=1;jettySize=auto;html=1;" edge="1" parent="1" source="RDJkUQa1LF6RGReYZGc8-22" target="RDJkUQa1LF6RGReYZGc8-24">
          <mxGeometry relative="1" as="geometry" />
        </mxCell>
        <mxCell id="RDJkUQa1LF6RGReYZGc8-22" value="obter 2º nota" style="shape=parallelogram;perimeter=parallelogramPerimeter;whiteSpace=wrap;html=1;fixedSize=1;fillColor=#FFCE9F;strokeWidth=2;" vertex="1" parent="1">
          <mxGeometry x="480" y="320" width="120" height="60" as="geometry" />
        </mxCell>
        <mxCell id="RDJkUQa1LF6RGReYZGc8-27" value="" style="edgeStyle=orthogonalEdgeStyle;rounded=0;orthogonalLoop=1;jettySize=auto;html=1;" edge="1" parent="1" source="RDJkUQa1LF6RGReYZGc8-24" target="RDJkUQa1LF6RGReYZGc8-26">
          <mxGeometry relative="1" as="geometry" />
        </mxCell>
        <mxCell id="RDJkUQa1LF6RGReYZGc8-24" value="realiza o cálculo da média" style="whiteSpace=wrap;html=1;fillColor=#99CCFF;strokeWidth=2;" vertex="1" parent="1">
          <mxGeometry x="480" y="440" width="120" height="60" as="geometry" />
        </mxCell>
        <mxCell id="RDJkUQa1LF6RGReYZGc8-29" value="" style="edgeStyle=orthogonalEdgeStyle;rounded=0;orthogonalLoop=1;jettySize=auto;html=1;" edge="1" parent="1" source="RDJkUQa1LF6RGReYZGc8-26" target="RDJkUQa1LF6RGReYZGc8-28">
          <mxGeometry relative="1" as="geometry" />
        </mxCell>
        <mxCell id="RDJkUQa1LF6RGReYZGc8-30" value="" style="edgeStyle=orthogonalEdgeStyle;rounded=0;orthogonalLoop=1;jettySize=auto;html=1;" edge="1" parent="1" source="RDJkUQa1LF6RGReYZGc8-26" target="RDJkUQa1LF6RGReYZGc8-28">
          <mxGeometry relative="1" as="geometry" />
        </mxCell>
        <mxCell id="RDJkUQa1LF6RGReYZGc8-32" value="SIM" style="edgeLabel;html=1;align=center;verticalAlign=middle;resizable=0;points=[];" vertex="1" connectable="0" parent="RDJkUQa1LF6RGReYZGc8-30">
          <mxGeometry x="-0.43" relative="1" as="geometry">
            <mxPoint x="23" y="-10" as="offset" />
          </mxGeometry>
        </mxCell>
        <mxCell id="RDJkUQa1LF6RGReYZGc8-34" value="" style="edgeStyle=orthogonalEdgeStyle;rounded=0;orthogonalLoop=1;jettySize=auto;html=1;" edge="1" parent="1" source="RDJkUQa1LF6RGReYZGc8-26" target="RDJkUQa1LF6RGReYZGc8-33">
          <mxGeometry relative="1" as="geometry" />
        </mxCell>
        <mxCell id="RDJkUQa1LF6RGReYZGc8-35" value="NÃO" style="edgeLabel;html=1;align=center;verticalAlign=middle;resizable=0;points=[];" vertex="1" connectable="0" parent="RDJkUQa1LF6RGReYZGc8-34">
          <mxGeometry x="-0.0133" y="-2" relative="1" as="geometry">
            <mxPoint x="16" y="-19" as="offset" />
          </mxGeometry>
        </mxCell>
        <mxCell id="RDJkUQa1LF6RGReYZGc8-26" value="média acima&lt;br&gt;de 7?" style="rhombus;whiteSpace=wrap;html=1;fillColor=#B9E0A5;strokeWidth=2;" vertex="1" parent="1">
          <mxGeometry x="490" y="550" width="100" height="80" as="geometry" />
        </mxCell>
        <mxCell id="RDJkUQa1LF6RGReYZGc8-43" value="" style="edgeStyle=orthogonalEdgeStyle;rounded=0;orthogonalLoop=1;jettySize=auto;html=1;" edge="1" parent="1" source="RDJkUQa1LF6RGReYZGc8-28" target="RDJkUQa1LF6RGReYZGc8-40">
          <mxGeometry relative="1" as="geometry">
            <Array as="points">
              <mxPoint x="680" y="840" />
            </Array>
          </mxGeometry>
        </mxCell>
        <mxCell id="RDJkUQa1LF6RGReYZGc8-28" value="exibir &quot;aprovado&quot;" style="strokeWidth=2;html=1;shape=mxgraph.flowchart.display;whiteSpace=wrap;fillColor=#FFCE9F;" vertex="1" parent="1">
          <mxGeometry x="630" y="700" width="100" height="60" as="geometry" />
        </mxCell>
        <mxCell id="RDJkUQa1LF6RGReYZGc8-42" value="" style="edgeStyle=orthogonalEdgeStyle;rounded=0;orthogonalLoop=1;jettySize=auto;html=1;" edge="1" parent="1" source="RDJkUQa1LF6RGReYZGc8-33" target="RDJkUQa1LF6RGReYZGc8-40">
          <mxGeometry relative="1" as="geometry">
            <Array as="points">
              <mxPoint x="400" y="840" />
            </Array>
          </mxGeometry>
        </mxCell>
        <mxCell id="RDJkUQa1LF6RGReYZGc8-33" value="exibir &quot;reprovado&quot;" style="strokeWidth=2;html=1;shape=mxgraph.flowchart.display;whiteSpace=wrap;fillColor=#FFCE9F;" vertex="1" parent="1">
          <mxGeometry x="350" y="700" width="100" height="60" as="geometry" />
        </mxCell>
        <mxCell id="RDJkUQa1LF6RGReYZGc8-44" style="edgeStyle=orthogonalEdgeStyle;rounded=0;orthogonalLoop=1;jettySize=auto;html=1;exitX=0;exitY=0.5;exitDx=0;exitDy=0;exitPerimeter=0;" edge="1" parent="1" source="RDJkUQa1LF6RGReYZGc8-40">
          <mxGeometry relative="1" as="geometry">
            <mxPoint x="490" y="840" as="targetPoint" />
          </mxGeometry>
        </mxCell>
        <mxCell id="RDJkUQa1LF6RGReYZGc8-40" value="fim" style="strokeWidth=2;html=1;shape=mxgraph.flowchart.start_1;whiteSpace=wrap;fillColor=#EA6B66;" vertex="1" parent="1">
          <mxGeometry x="480" y="800" width="120" height="80" as="geometry" />
        </mxCell>
      </root>
    </mxGraphModel>
  </diagram>
  <diagram id="AuqtTBZAw56DcC9_f2nY" name="Página-2">
    <mxGraphModel dx="1050" dy="557" grid="1" gridSize="10" guides="1" tooltips="1" connect="1" arrows="1" fold="1" page="1" pageScale="1" pageWidth="827" pageHeight="1169" math="0" shadow="0">
      <root>
        <mxCell id="0" />
        <mxCell id="1" parent="0" />
        <mxCell id="yCaLz-L_rcQo14pus2Dn-3" value="" style="edgeStyle=orthogonalEdgeStyle;rounded=0;orthogonalLoop=1;jettySize=auto;html=1;" edge="1" parent="1" source="yCaLz-L_rcQo14pus2Dn-1" target="yCaLz-L_rcQo14pus2Dn-2">
          <mxGeometry relative="1" as="geometry" />
        </mxCell>
        <mxCell id="yCaLz-L_rcQo14pus2Dn-1" value="início" style="strokeWidth=2;html=1;shape=mxgraph.flowchart.start_1;whiteSpace=wrap;fillColor=#B9E0A5;" vertex="1" parent="1">
          <mxGeometry x="270" y="50" width="100" height="60" as="geometry" />
        </mxCell>
        <mxCell id="yCaLz-L_rcQo14pus2Dn-2" value="solicita um número &lt;br&gt;ao usuário&amp;nbsp;" style="shape=parallelogram;perimeter=parallelogramPerimeter;whiteSpace=wrap;html=1;fixedSize=1;fillColor=#FFCE9F;strokeWidth=2;" vertex="1" parent="1">
          <mxGeometry x="250" y="170" width="140" height="60" as="geometry" />
        </mxCell>
        <mxCell id="vnH_zch6sMpxtY7sG5Y9-1" value="número maior &lt;br&gt;que 0?" style="strokeWidth=2;html=1;shape=mxgraph.flowchart.decision;whiteSpace=wrap;fillColor=#FFFF99;" vertex="1" parent="1">
          <mxGeometry x="260" y="310" width="120" height="110" as="geometry" />
        </mxCell>
        <mxCell id="W88jhC7m40ET1y2fXxFF-8" style="edgeStyle=orthogonalEdgeStyle;rounded=0;orthogonalLoop=1;jettySize=auto;html=1;entryX=1;entryY=0.5;entryDx=0;entryDy=0;entryPerimeter=0;" edge="1" parent="1" source="W88jhC7m40ET1y2fXxFF-1" target="W88jhC7m40ET1y2fXxFF-7">
          <mxGeometry relative="1" as="geometry">
            <mxPoint x="490" y="590" as="targetPoint" />
            <Array as="points">
              <mxPoint x="480" y="585" />
            </Array>
          </mxGeometry>
        </mxCell>
        <mxCell id="W88jhC7m40ET1y2fXxFF-1" value="exibir &quot;positivo&quot;" style="strokeWidth=2;html=1;shape=mxgraph.flowchart.display;whiteSpace=wrap;fillColor=#FFCC99;" vertex="1" parent="1">
          <mxGeometry x="420" y="440" width="100" height="60" as="geometry" />
        </mxCell>
        <mxCell id="W88jhC7m40ET1y2fXxFF-11" style="edgeStyle=orthogonalEdgeStyle;rounded=0;orthogonalLoop=1;jettySize=auto;html=1;entryX=0;entryY=0.5;entryDx=0;entryDy=0;entryPerimeter=0;" edge="1" parent="1" source="W88jhC7m40ET1y2fXxFF-2" target="W88jhC7m40ET1y2fXxFF-7">
          <mxGeometry relative="1" as="geometry">
            <mxPoint x="160" y="620" as="targetPoint" />
            <Array as="points">
              <mxPoint x="160" y="550" />
              <mxPoint x="161" y="550" />
              <mxPoint x="161" y="585" />
            </Array>
          </mxGeometry>
        </mxCell>
        <mxCell id="W88jhC7m40ET1y2fXxFF-2" value="exibir &quot;negativo&quot;" style="strokeWidth=2;html=1;shape=mxgraph.flowchart.display;whiteSpace=wrap;fillColor=#FFCC99;" vertex="1" parent="1">
          <mxGeometry x="110" y="440" width="100" height="60" as="geometry" />
        </mxCell>
        <mxCell id="W88jhC7m40ET1y2fXxFF-3" style="edgeStyle=orthogonalEdgeStyle;rounded=0;orthogonalLoop=1;jettySize=auto;html=1;entryX=0.5;entryY=0;entryDx=0;entryDy=0;entryPerimeter=0;" edge="1" parent="1" source="vnH_zch6sMpxtY7sG5Y9-1" target="W88jhC7m40ET1y2fXxFF-2">
          <mxGeometry relative="1" as="geometry" />
        </mxCell>
        <mxCell id="W88jhC7m40ET1y2fXxFF-5" value="não" style="edgeLabel;html=1;align=center;verticalAlign=middle;resizable=0;points=[];" vertex="1" connectable="0" parent="W88jhC7m40ET1y2fXxFF-3">
          <mxGeometry x="-0.1749" y="-1" relative="1" as="geometry">
            <mxPoint x="12" y="-14" as="offset" />
          </mxGeometry>
        </mxCell>
        <mxCell id="W88jhC7m40ET1y2fXxFF-4" style="edgeStyle=orthogonalEdgeStyle;rounded=0;orthogonalLoop=1;jettySize=auto;html=1;entryX=0.596;entryY=-0.05;entryDx=0;entryDy=0;entryPerimeter=0;" edge="1" parent="1" source="vnH_zch6sMpxtY7sG5Y9-1" target="W88jhC7m40ET1y2fXxFF-1">
          <mxGeometry relative="1" as="geometry" />
        </mxCell>
        <mxCell id="W88jhC7m40ET1y2fXxFF-6" value="sim" style="edgeLabel;html=1;align=center;verticalAlign=middle;resizable=0;points=[];" vertex="1" connectable="0" parent="W88jhC7m40ET1y2fXxFF-4">
          <mxGeometry x="-0.4079" y="-2" relative="1" as="geometry">
            <mxPoint x="9" y="-17" as="offset" />
          </mxGeometry>
        </mxCell>
        <mxCell id="W88jhC7m40ET1y2fXxFF-7" value="fim" style="strokeWidth=2;html=1;shape=mxgraph.flowchart.start_1;whiteSpace=wrap;fillColor=#EA6B66;" vertex="1" parent="1">
          <mxGeometry x="260" y="555" width="100" height="60" as="geometry" />
        </mxCell>
        <mxCell id="n_IA47igockifhH-IlR--1" style="edgeStyle=orthogonalEdgeStyle;rounded=0;orthogonalLoop=1;jettySize=auto;html=1;entryX=0.5;entryY=0;entryDx=0;entryDy=0;entryPerimeter=0;" edge="1" parent="1" source="yCaLz-L_rcQo14pus2Dn-2" target="vnH_zch6sMpxtY7sG5Y9-1">
          <mxGeometry relative="1" as="geometry" />
        </mxCell>
      </root>
    </mxGraphModel>
  </diagram>
  <diagram id="cpGQxUNLa7w810tWMhDH" name="Página-3">
    <mxGraphModel dx="1050" dy="557" grid="1" gridSize="10" guides="1" tooltips="1" connect="1" arrows="1" fold="1" page="1" pageScale="1" pageWidth="827" pageHeight="1169" math="0" shadow="0">
      <root>
        <mxCell id="0" />
        <mxCell id="1" parent="0" />
        <mxCell id="2-VxkokvKtmlZcvGSUA7-3" value="" style="edgeStyle=orthogonalEdgeStyle;rounded=0;orthogonalLoop=1;jettySize=auto;html=1;" edge="1" parent="1" source="2-VxkokvKtmlZcvGSUA7-1" target="2-VxkokvKtmlZcvGSUA7-2">
          <mxGeometry relative="1" as="geometry" />
        </mxCell>
        <mxCell id="2-VxkokvKtmlZcvGSUA7-1" value="início" style="strokeWidth=2;html=1;shape=mxgraph.flowchart.start_1;whiteSpace=wrap;fillColor=#B9E0A5;" vertex="1" parent="1">
          <mxGeometry x="270" y="40" width="100" height="60" as="geometry" />
        </mxCell>
        <mxCell id="HD5RGExL5sqOZFgCteq--4" value="" style="edgeStyle=orthogonalEdgeStyle;rounded=0;orthogonalLoop=1;jettySize=auto;html=1;" edge="1" parent="1" source="2-VxkokvKtmlZcvGSUA7-2" target="HD5RGExL5sqOZFgCteq--3">
          <mxGeometry relative="1" as="geometry" />
        </mxCell>
        <mxCell id="2-VxkokvKtmlZcvGSUA7-2" value="obtém o 1º&lt;br&gt;número&amp;nbsp;" style="shape=parallelogram;perimeter=parallelogramPerimeter;whiteSpace=wrap;html=1;fixedSize=1;strokeWidth=2;fillColor=#FFCC99;" vertex="1" parent="1">
          <mxGeometry x="260" y="160" width="120" height="60" as="geometry" />
        </mxCell>
        <mxCell id="HD5RGExL5sqOZFgCteq--6" value="" style="edgeStyle=orthogonalEdgeStyle;rounded=0;orthogonalLoop=1;jettySize=auto;html=1;" edge="1" parent="1" source="HD5RGExL5sqOZFgCteq--3" target="HD5RGExL5sqOZFgCteq--5">
          <mxGeometry relative="1" as="geometry" />
        </mxCell>
        <mxCell id="HD5RGExL5sqOZFgCteq--3" value="obtém o 2º &lt;br&gt;número" style="shape=parallelogram;perimeter=parallelogramPerimeter;whiteSpace=wrap;html=1;fixedSize=1;strokeWidth=2;fillColor=#FFCC99;" vertex="1" parent="1">
          <mxGeometry x="260" y="280" width="120" height="60" as="geometry" />
        </mxCell>
        <mxCell id="HD5RGExL5sqOZFgCteq--9" style="edgeStyle=orthogonalEdgeStyle;rounded=0;orthogonalLoop=1;jettySize=auto;html=1;entryX=0.32;entryY=-0.01;entryDx=0;entryDy=0;entryPerimeter=0;" edge="1" parent="1" source="HD5RGExL5sqOZFgCteq--5" target="HD5RGExL5sqOZFgCteq--7">
          <mxGeometry relative="1" as="geometry">
            <mxPoint x="440" y="510" as="targetPoint" />
          </mxGeometry>
        </mxCell>
        <mxCell id="HD5RGExL5sqOZFgCteq--12" value="SIM" style="edgeLabel;html=1;align=center;verticalAlign=middle;resizable=0;points=[];" vertex="1" connectable="0" parent="HD5RGExL5sqOZFgCteq--9">
          <mxGeometry x="-0.5502" y="1" relative="1" as="geometry">
            <mxPoint y="-9" as="offset" />
          </mxGeometry>
        </mxCell>
        <mxCell id="HD5RGExL5sqOZFgCteq--10" style="edgeStyle=orthogonalEdgeStyle;rounded=0;orthogonalLoop=1;jettySize=auto;html=1;exitX=0;exitY=0.5;exitDx=0;exitDy=0;entryX=0.58;entryY=0.003;entryDx=0;entryDy=0;entryPerimeter=0;" edge="1" parent="1" source="HD5RGExL5sqOZFgCteq--5" target="HD5RGExL5sqOZFgCteq--8">
          <mxGeometry relative="1" as="geometry">
            <mxPoint x="170" y="450" as="targetPoint" />
          </mxGeometry>
        </mxCell>
        <mxCell id="HD5RGExL5sqOZFgCteq--11" value="NÃO" style="edgeLabel;html=1;align=center;verticalAlign=middle;resizable=0;points=[];" vertex="1" connectable="0" parent="HD5RGExL5sqOZFgCteq--10">
          <mxGeometry x="-0.3783" y="-2" relative="1" as="geometry">
            <mxPoint x="14" y="-8" as="offset" />
          </mxGeometry>
        </mxCell>
        <mxCell id="HD5RGExL5sqOZFgCteq--5" value="&amp;nbsp;o 1º número é maior &lt;br&gt;do que o 2º?" style="rhombus;whiteSpace=wrap;html=1;strokeWidth=2;fillColor=#FFFF99;" vertex="1" parent="1">
          <mxGeometry x="257.5" y="400" width="125" height="90" as="geometry" />
        </mxCell>
        <mxCell id="HD5RGExL5sqOZFgCteq--14" style="edgeStyle=orthogonalEdgeStyle;rounded=0;orthogonalLoop=1;jettySize=auto;html=1;entryX=1;entryY=0.5;entryDx=0;entryDy=0;entryPerimeter=0;" edge="1" parent="1" source="HD5RGExL5sqOZFgCteq--7" target="HD5RGExL5sqOZFgCteq--13">
          <mxGeometry relative="1" as="geometry">
            <mxPoint x="460" y="650" as="targetPoint" />
            <Array as="points">
              <mxPoint x="460" y="615" />
              <mxPoint x="461" y="615" />
              <mxPoint x="461" y="630" />
            </Array>
          </mxGeometry>
        </mxCell>
        <mxCell id="HD5RGExL5sqOZFgCteq--7" value="exibir&lt;br style=&quot;border-color: var(--border-color);&quot;&gt;&quot;1º número maior que o 2º&quot;" style="strokeWidth=2;html=1;shape=mxgraph.flowchart.display;whiteSpace=wrap;fillColor=#FFCC99;" vertex="1" parent="1">
          <mxGeometry x="410" y="520" width="100" height="60" as="geometry" />
        </mxCell>
        <mxCell id="HD5RGExL5sqOZFgCteq--15" style="edgeStyle=orthogonalEdgeStyle;rounded=0;orthogonalLoop=1;jettySize=auto;html=1;entryX=0;entryY=0.5;entryDx=0;entryDy=0;entryPerimeter=0;" edge="1" parent="1" source="HD5RGExL5sqOZFgCteq--8" target="HD5RGExL5sqOZFgCteq--13">
          <mxGeometry relative="1" as="geometry">
            <mxPoint x="190" y="670" as="targetPoint" />
            <Array as="points">
              <mxPoint x="190" y="625" />
              <mxPoint x="191" y="625" />
              <mxPoint x="191" y="630" />
            </Array>
          </mxGeometry>
        </mxCell>
        <mxCell id="HD5RGExL5sqOZFgCteq--8" value="exibir &lt;br&gt;&quot;2º número maior que o 1º&quot;" style="strokeWidth=2;html=1;shape=mxgraph.flowchart.display;whiteSpace=wrap;fillColor=#FFCC99;" vertex="1" parent="1">
          <mxGeometry x="120" y="510" width="110" height="60" as="geometry" />
        </mxCell>
        <mxCell id="HD5RGExL5sqOZFgCteq--13" value="fim" style="strokeWidth=2;html=1;shape=mxgraph.flowchart.start_1;whiteSpace=wrap;fillColor=#EA6B66;" vertex="1" parent="1">
          <mxGeometry x="270" y="600" width="100" height="60" as="geometry" />
        </mxCell>
      </root>
    </mxGraphModel>
  </diagram>
  <diagram id="QDvM4BvG6KkPI7jKlzCv" name="Página-4">
    <mxGraphModel dx="1050" dy="557" grid="1" gridSize="10" guides="1" tooltips="1" connect="1" arrows="1" fold="1" page="1" pageScale="1" pageWidth="827" pageHeight="1169" math="0" shadow="0">
      <root>
        <mxCell id="0" />
        <mxCell id="1" parent="0" />
        <mxCell id="bPGPBKoJO8ogUZRZgnnQ-3" value="" style="edgeStyle=orthogonalEdgeStyle;rounded=0;orthogonalLoop=1;jettySize=auto;html=1;" edge="1" parent="1" source="bPGPBKoJO8ogUZRZgnnQ-1" target="bPGPBKoJO8ogUZRZgnnQ-2">
          <mxGeometry relative="1" as="geometry" />
        </mxCell>
        <mxCell id="bPGPBKoJO8ogUZRZgnnQ-1" value="início" style="strokeWidth=2;html=1;shape=mxgraph.flowchart.start_1;whiteSpace=wrap;fillColor=#B9E0A5;" vertex="1" parent="1">
          <mxGeometry x="270" y="40" width="100" height="60" as="geometry" />
        </mxCell>
        <mxCell id="bPGPBKoJO8ogUZRZgnnQ-8" value="" style="edgeStyle=orthogonalEdgeStyle;rounded=0;orthogonalLoop=1;jettySize=auto;html=1;" edge="1" parent="1" source="bPGPBKoJO8ogUZRZgnnQ-2" target="bPGPBKoJO8ogUZRZgnnQ-7">
          <mxGeometry relative="1" as="geometry" />
        </mxCell>
        <mxCell id="bPGPBKoJO8ogUZRZgnnQ-2" value="obtém a idade" style="shape=parallelogram;perimeter=parallelogramPerimeter;whiteSpace=wrap;html=1;fixedSize=1;strokeWidth=2;fillColor=#FFB570;" vertex="1" parent="1">
          <mxGeometry x="260" y="160" width="120" height="60" as="geometry" />
        </mxCell>
        <mxCell id="S646VbTw-Nz6g9J_3gix-2" value="" style="edgeStyle=orthogonalEdgeStyle;rounded=0;orthogonalLoop=1;jettySize=auto;html=1;" edge="1" parent="1" source="bPGPBKoJO8ogUZRZgnnQ-7" target="S646VbTw-Nz6g9J_3gix-1">
          <mxGeometry relative="1" as="geometry" />
        </mxCell>
        <mxCell id="S646VbTw-Nz6g9J_3gix-18" value="SIM" style="edgeLabel;html=1;align=center;verticalAlign=middle;resizable=0;points=[];" vertex="1" connectable="0" parent="S646VbTw-Nz6g9J_3gix-2">
          <mxGeometry x="-0.27" y="3" relative="1" as="geometry">
            <mxPoint x="-3" y="-7" as="offset" />
          </mxGeometry>
        </mxCell>
        <mxCell id="S646VbTw-Nz6g9J_3gix-16" style="edgeStyle=orthogonalEdgeStyle;rounded=0;orthogonalLoop=1;jettySize=auto;html=1;entryX=0.596;entryY=-0.023;entryDx=0;entryDy=0;entryPerimeter=0;" edge="1" parent="1" source="bPGPBKoJO8ogUZRZgnnQ-7" target="S646VbTw-Nz6g9J_3gix-13">
          <mxGeometry relative="1" as="geometry">
            <mxPoint x="80" y="330" as="targetPoint" />
          </mxGeometry>
        </mxCell>
        <mxCell id="S646VbTw-Nz6g9J_3gix-19" value="NÃO" style="edgeLabel;html=1;align=center;verticalAlign=middle;resizable=0;points=[];" vertex="1" connectable="0" parent="S646VbTw-Nz6g9J_3gix-16">
          <mxGeometry x="-0.4248" y="1" relative="1" as="geometry">
            <mxPoint x="-4" y="-11" as="offset" />
          </mxGeometry>
        </mxCell>
        <mxCell id="bPGPBKoJO8ogUZRZgnnQ-7" value="maior que 16?" style="rhombus;whiteSpace=wrap;html=1;strokeWidth=2;fillColor=#FFFF99;" vertex="1" parent="1">
          <mxGeometry x="250" y="290" width="120" height="80" as="geometry" />
        </mxCell>
        <mxCell id="S646VbTw-Nz6g9J_3gix-6" style="edgeStyle=orthogonalEdgeStyle;rounded=0;orthogonalLoop=1;jettySize=auto;html=1;entryX=0.72;entryY=-0.077;entryDx=0;entryDy=0;entryPerimeter=0;" edge="1" parent="1" source="S646VbTw-Nz6g9J_3gix-1" target="S646VbTw-Nz6g9J_3gix-3">
          <mxGeometry relative="1" as="geometry">
            <mxPoint x="730" y="430" as="targetPoint" />
          </mxGeometry>
        </mxCell>
        <mxCell id="S646VbTw-Nz6g9J_3gix-20" value="SIM" style="edgeLabel;html=1;align=center;verticalAlign=middle;resizable=0;points=[];" vertex="1" connectable="0" parent="S646VbTw-Nz6g9J_3gix-6">
          <mxGeometry x="-0.1722" relative="1" as="geometry">
            <mxPoint y="-10" as="offset" />
          </mxGeometry>
        </mxCell>
        <mxCell id="S646VbTw-Nz6g9J_3gix-8" style="edgeStyle=orthogonalEdgeStyle;rounded=0;orthogonalLoop=1;jettySize=auto;html=1;" edge="1" parent="1" source="S646VbTw-Nz6g9J_3gix-1">
          <mxGeometry relative="1" as="geometry">
            <mxPoint x="400" y="480" as="targetPoint" />
          </mxGeometry>
        </mxCell>
        <mxCell id="S646VbTw-Nz6g9J_3gix-21" value="NÃO" style="edgeLabel;html=1;align=center;verticalAlign=middle;resizable=0;points=[];" vertex="1" connectable="0" parent="S646VbTw-Nz6g9J_3gix-8">
          <mxGeometry x="-0.2512" y="-3" relative="1" as="geometry">
            <mxPoint x="11" y="-7" as="offset" />
          </mxGeometry>
        </mxCell>
        <mxCell id="S646VbTw-Nz6g9J_3gix-1" value="maior que 18?" style="rhombus;whiteSpace=wrap;html=1;strokeWidth=2;fillColor=#FFFF99;" vertex="1" parent="1">
          <mxGeometry x="460" y="390" width="100" height="80" as="geometry" />
        </mxCell>
        <mxCell id="S646VbTw-Nz6g9J_3gix-10" style="edgeStyle=orthogonalEdgeStyle;rounded=0;orthogonalLoop=1;jettySize=auto;html=1;entryX=1;entryY=0.5;entryDx=0;entryDy=0;entryPerimeter=0;" edge="1" parent="1" source="S646VbTw-Nz6g9J_3gix-3" target="S646VbTw-Nz6g9J_3gix-14">
          <mxGeometry relative="1" as="geometry">
            <mxPoint x="360" y="640" as="targetPoint" />
            <Array as="points">
              <mxPoint x="640" y="605" />
              <mxPoint x="641" y="605" />
              <mxPoint x="641" y="640" />
            </Array>
          </mxGeometry>
        </mxCell>
        <mxCell id="S646VbTw-Nz6g9J_3gix-3" value="obrigatório" style="strokeWidth=2;html=1;shape=mxgraph.flowchart.display;whiteSpace=wrap;fillColor=#FFCC99;" vertex="1" parent="1">
          <mxGeometry x="590" y="480" width="100" height="60" as="geometry" />
        </mxCell>
        <mxCell id="S646VbTw-Nz6g9J_3gix-11" style="edgeStyle=orthogonalEdgeStyle;rounded=0;orthogonalLoop=1;jettySize=auto;html=1;" edge="1" parent="1" source="S646VbTw-Nz6g9J_3gix-7">
          <mxGeometry relative="1" as="geometry">
            <mxPoint x="300" y="620" as="targetPoint" />
          </mxGeometry>
        </mxCell>
        <mxCell id="S646VbTw-Nz6g9J_3gix-7" value="voto opcional" style="strokeWidth=2;html=1;shape=mxgraph.flowchart.display;whiteSpace=wrap;fillColor=#FFCC99;" vertex="1" parent="1">
          <mxGeometry x="360" y="480" width="100" height="60" as="geometry" />
        </mxCell>
        <mxCell id="S646VbTw-Nz6g9J_3gix-17" style="edgeStyle=orthogonalEdgeStyle;rounded=0;orthogonalLoop=1;jettySize=auto;html=1;entryX=0;entryY=0.5;entryDx=0;entryDy=0;entryPerimeter=0;" edge="1" parent="1" source="S646VbTw-Nz6g9J_3gix-13" target="S646VbTw-Nz6g9J_3gix-14">
          <mxGeometry relative="1" as="geometry">
            <mxPoint x="70" y="650" as="targetPoint" />
            <Array as="points">
              <mxPoint x="70" y="585" />
              <mxPoint x="71" y="585" />
              <mxPoint x="71" y="640" />
            </Array>
          </mxGeometry>
        </mxCell>
        <mxCell id="S646VbTw-Nz6g9J_3gix-13" value="não pode votar" style="strokeWidth=2;html=1;shape=mxgraph.flowchart.display;whiteSpace=wrap;fillColor=#FFCC99;" vertex="1" parent="1">
          <mxGeometry x="20" y="460" width="100" height="60" as="geometry" />
        </mxCell>
        <mxCell id="S646VbTw-Nz6g9J_3gix-14" value="fim" style="strokeWidth=2;html=1;shape=mxgraph.flowchart.start_1;whiteSpace=wrap;fillColor=#EA6B66;" vertex="1" parent="1">
          <mxGeometry x="250" y="610" width="100" height="60" as="geometry" />
        </mxCell>
      </root>
    </mxGraphModel>
  </diagram>
</mxfile>
